<mxfile host="Electron" agent="Mozilla/5.0 (Windows NT 10.0; Win64; x64) AppleWebKit/537.36 (KHTML, like Gecko) draw.io/26.1.1 Chrome/132.0.6834.210 Electron/34.3.3 Safari/537.36" version="26.1.1">
  <diagram name="Page-1" id="Tjax2g9XGrQKqjnxmGrK">
    <mxGraphModel dx="1630" dy="496" grid="1" gridSize="10" guides="1" tooltips="1" connect="1" arrows="1" fold="1" page="1" pageScale="1" pageWidth="850" pageHeight="1100" math="0" shadow="0">
      <root>
        <mxCell id="0" />
        <mxCell id="1" parent="0" />
        <mxCell id="2PJWk9xMFE8C9ScAVKHq-1" value="" style="sketch=0;aspect=fixed;pointerEvents=1;shadow=0;dashed=0;html=1;strokeColor=none;labelPosition=center;verticalLabelPosition=bottom;verticalAlign=top;align=center;fillColor=#00188D;shape=mxgraph.azure.laptop" parent="1" vertex="1">
          <mxGeometry x="-300" y="140" width="200" height="120" as="geometry" />
        </mxCell>
        <mxCell id="2PJWk9xMFE8C9ScAVKHq-13" style="edgeStyle=orthogonalEdgeStyle;rounded=0;orthogonalLoop=1;jettySize=auto;html=1;" parent="1" source="2PJWk9xMFE8C9ScAVKHq-4" edge="1">
          <mxGeometry relative="1" as="geometry">
            <mxPoint x="-120" y="200" as="targetPoint" />
          </mxGeometry>
        </mxCell>
        <mxCell id="2PJWk9xMFE8C9ScAVKHq-4" value="" style="html=1;verticalLabelPosition=bottom;align=center;labelBackgroundColor=#ffffff;verticalAlign=top;strokeWidth=2;strokeColor=#0080F0;shadow=0;dashed=0;shape=mxgraph.ios7.icons.smartphone;" parent="1" vertex="1">
          <mxGeometry x="260" y="120" width="100" height="160" as="geometry" />
        </mxCell>
        <mxCell id="2PJWk9xMFE8C9ScAVKHq-9" value="Server" style="text;html=1;align=center;verticalAlign=middle;resizable=0;points=[];autosize=1;strokeColor=none;fillColor=none;fontSize=18;fontStyle=1" parent="1" vertex="1">
          <mxGeometry x="270" y="290" width="80" height="40" as="geometry" />
        </mxCell>
        <mxCell id="2PJWk9xMFE8C9ScAVKHq-10" value="Client" style="text;html=1;align=center;verticalAlign=middle;resizable=0;points=[];autosize=1;strokeColor=none;fillColor=none;fontSize=19;fontStyle=1" parent="1" vertex="1">
          <mxGeometry x="-235" y="315" width="70" height="40" as="geometry" />
        </mxCell>
        <mxCell id="2PJWk9xMFE8C9ScAVKHq-11" value="" style="html=1;verticalLabelPosition=bottom;align=center;labelBackgroundColor=#ffffff;verticalAlign=top;strokeWidth=2;strokeColor=#0080F0;shadow=0;dashed=0;shape=mxgraph.ios7.icons.box;" parent="1" vertex="1">
          <mxGeometry x="240" y="359" width="150" height="180" as="geometry" />
        </mxCell>
        <mxCell id="2PJWk9xMFE8C9ScAVKHq-12" value="" style="sketch=0;html=1;aspect=fixed;strokeColor=none;shadow=0;fillColor=#3B8DF1;verticalAlign=top;labelPosition=center;verticalLabelPosition=bottom;shape=mxgraph.gcp2.lock" parent="1" vertex="1">
          <mxGeometry x="291.6" y="450" width="46.8" height="60" as="geometry" />
        </mxCell>
        <mxCell id="2PJWk9xMFE8C9ScAVKHq-16" style="edgeStyle=orthogonalEdgeStyle;rounded=0;orthogonalLoop=1;jettySize=auto;html=1;exitX=0.995;exitY=0.475;exitDx=0;exitDy=0;exitPerimeter=0;" parent="1" source="2PJWk9xMFE8C9ScAVKHq-14" edge="1">
          <mxGeometry relative="1" as="geometry">
            <mxPoint x="250" y="450" as="targetPoint" />
            <Array as="points">
              <mxPoint x="20" y="449" />
              <mxPoint x="20" y="450" />
            </Array>
          </mxGeometry>
        </mxCell>
        <mxCell id="2PJWk9xMFE8C9ScAVKHq-14" value="" style="points=[[0,0.5,0],[0.24,0,0],[0.5,0.28,0],[0.995,0.475,0],[0.5,0.72,0],[0.24,1,0]];verticalLabelPosition=bottom;sketch=0;html=1;verticalAlign=top;aspect=fixed;align=center;pointerEvents=1;shape=mxgraph.cisco19.key;fillColor=#005073;strokeColor=none;" parent="1" vertex="1">
          <mxGeometry x="-280" y="440" width="40" height="18" as="geometry" />
        </mxCell>
      </root>
    </mxGraphModel>
  </diagram>
</mxfile>
